<svg width="108" height="108" viewBox="0 0 108 108" fill="none" xmlns="http://www.w3.org/2000/svg">
<path fill-rule="evenodd" clip-rule="evenodd" d="M51.6003 71.2962C53.307 70.2295 54.6297 69.0135 55.5683 67.6482V72.0002H72.4643V61.5042H69.6483V49.6642C69.6483 44.8429 68.283 41.2802 65.5523 38.9762C62.8217 36.6722 58.2777 35.5202 51.9203 35.5202C49.403 35.5202 46.8217 35.6909 44.1763 36.0322C41.531 36.3735 39.0777 36.8215 36.8163 37.3762V49.1522C38.651 48.4695 40.6563 47.9362 42.8323 47.5522C45.051 47.1255 47.1203 46.9122 49.0403 46.9122C51.387 46.9122 53.051 47.1895 54.0323 47.7442C55.0137 48.2562 55.5683 49.2375 55.6963 50.6882C42.0003 50.9015 35.1523 55.0402 35.1523 63.1042C35.1523 66.2189 36.0697 68.6295 37.9043 70.3362C39.739 72.0429 42.2563 72.8962 45.4563 72.8962C47.8883 72.8962 49.9363 72.3629 51.6003 71.2962ZM51.0883 57.7922C52.155 57.2802 53.6483 57.0242 55.5683 57.0242V57.4082C55.5683 59.1149 55.2697 60.4375 54.6723 61.3762C54.075 62.3149 53.2217 62.7842 52.1123 62.7842C51.3017 62.7842 50.6617 62.5709 50.1923 62.1442C49.7657 61.6749 49.5523 61.0775 49.5523 60.3522C49.5523 59.1575 50.0643 58.3042 51.0883 57.7922Z" fill="#F8FAFC"/>
<path d="M69.2643 21.8882H47.8243L40.2723 31.6162V32.5762H68.0483V31.6162L64.8087 27.4431L69.2643 23.6162V21.8882Z" fill="#F8FAFC"/>
<path d="M34 82C37.3333 75.3333 40.6667 75.3333 44 82C47.3333 88.6667 50.6667 88.6667 54 82C57.3333 75.3333 60.6667 75.3333 64 82C67.3333 88.6667 70.6667 88.6667 74 82" stroke="#FBBF24" stroke-width="6"/>
</svg>
