<svg width="48" height="48" viewBox="0 0 48 48" fill="none" xmlns="http://www.w3.org/2000/svg">
<path fill-rule="evenodd" clip-rule="evenodd" d="M24 6C14.0566 6 6 14.2602 6 24.4547C6 32.6067 11.1563 39.5272 18.3105 41.9662C19.2129 42.1344 19.541 41.5697 19.541 41.0771C19.541 40.6386 19.5234 39.4792 19.5176 37.9413C14.5078 39.0527 13.4531 35.4662 13.4531 35.4662C12.6328 33.3336 11.4551 32.7629 11.4551 32.7629C9.82031 31.6215 11.5781 31.6455 11.5781 31.6455C13.3828 31.7777 14.332 33.5439 14.332 33.5439C15.9375 36.3674 18.5449 35.5503 19.5703 35.0818C19.7344 33.8863 20.2031 33.0753 20.7129 32.6127C16.7168 32.1502 12.5156 30.5642 12.5156 23.4935C12.5156 21.475 13.2188 19.829 14.3672 18.5374C14.1855 18.0749 13.5645 16.1945 14.543 13.6534C14.543 13.6534 16.0547 13.1608 19.4941 15.5457C20.9297 15.1372 22.4707 14.933 24 14.927C25.5293 14.933 27.0703 15.1372 28.5059 15.5457C31.9453 13.1608 33.4512 13.6534 33.4512 13.6534C34.4355 16.1945 33.8203 18.0749 33.6328 18.5374C34.7871 19.829 35.4785 21.475 35.4785 23.4935C35.4785 30.5822 31.2715 32.1381 27.2637 32.6007C27.9082 33.1654 28.4824 34.2948 28.4824 36.0129C28.4824 38.482 28.4648 40.4704 28.4648 41.0771C28.4648 41.5697 28.7871 42.1465 29.7012 41.9662C36.8496 39.5212 42 32.6067 42 24.4547C42 14.2602 33.9434 6 24 6Z" fill="#F8FAFC"/>
</svg>
