<svg width="36" height="36" viewBox="0 0 36 36" fill="none" xmlns="http://www.w3.org/2000/svg">
<mask id="mask0_46_57" style="mask-type:alpha" maskUnits="userSpaceOnUse" x="0" y="0" width="36" height="36">
<rect width="36" height="36" fill="#D9D9D9"/>
</mask>
<g mask="url(#mask0_46_57)">
<path d="M18 33C15.9 33 13.9375 32.6062 12.1125 31.8187C10.2875 31.0312 8.7 29.9625 7.35 28.6125C6 27.2625 4.9375 25.6687 4.1625 23.8312C3.3875 21.9937 3 20.025 3 17.925C3 15.825 3.3875 13.8687 4.1625 12.0562C4.9375 10.2437 6 8.6625 7.35 7.3125C8.7 5.9625 10.2875 4.90625 12.1125 4.14375C13.9375 3.38125 15.9 3 18 3C20.1 3 22.0625 3.38125 23.8875 4.14375C25.7125 4.90625 27.3 5.9625 28.65 7.3125C30 8.6625 31.0625 10.2437 31.8375 12.0562C32.6125 13.8687 33 15.825 33 17.925C33 20.025 32.6125 21.9937 31.8375 23.8312C31.0625 25.6687 30 27.2625 28.65 28.6125C27.3 29.9625 25.7125 31.0312 23.8875 31.8187C22.0625 32.6062 20.1 33 18 33ZM18 30.825C18.875 29.925 19.6063 28.8938 20.1938 27.7313C20.7812 26.5688 21.2625 25.1875 21.6375 23.5875H14.4C14.75 25.0875 15.2188 26.4375 15.8063 27.6375C16.3938 28.8375 17.125 29.9 18 30.825ZM14.8125 30.375C14.1875 29.425 13.65 28.4 13.2 27.3C12.75 26.2 12.375 24.9625 12.075 23.5875H6.45C7.4 25.3625 8.5 26.7563 9.75 27.7688C11 28.7813 12.6875 29.65 14.8125 30.375ZM21.225 30.3375C23.025 29.7625 24.6437 28.9 26.0812 27.75C27.5187 26.6 28.675 25.2125 29.55 23.5875H23.9625C23.6375 24.9375 23.2563 26.1625 22.8188 27.2625C22.3813 28.3625 21.85 29.3875 21.225 30.3375ZM5.7 21.3375H11.6625C11.5875 20.6625 11.5437 20.0562 11.5312 19.5187C11.5188 18.9812 11.5125 18.45 11.5125 17.925C11.5125 17.3 11.525 16.7438 11.55 16.2563C11.575 15.7688 11.625 15.225 11.7 14.625H5.7C5.525 15.225 5.40625 15.7625 5.34375 16.2375C5.28125 16.7125 5.25 17.275 5.25 17.925C5.25 18.575 5.28125 19.1562 5.34375 19.6688C5.40625 20.1812 5.525 20.7375 5.7 21.3375ZM13.9875 21.3375H22.05C22.15 20.5625 22.2125 19.9313 22.2375 19.4438C22.2625 18.9563 22.275 18.45 22.275 17.925C22.275 17.425 22.2625 16.9438 22.2375 16.4813C22.2125 16.0188 22.15 15.4 22.05 14.625H13.9875C13.8875 15.4 13.825 16.0188 13.8 16.4813C13.775 16.9438 13.7625 17.425 13.7625 17.925C13.7625 18.45 13.775 18.9563 13.8 19.4438C13.825 19.9313 13.8875 20.5625 13.9875 21.3375ZM24.3 21.3375H30.3C30.475 20.7375 30.5938 20.1812 30.6562 19.6688C30.7188 19.1562 30.75 18.575 30.75 17.925C30.75 17.275 30.7188 16.7125 30.6562 16.2375C30.5938 15.7625 30.475 15.225 30.3 14.625H24.3375C24.4125 15.5 24.4625 16.1688 24.4875 16.6313C24.5125 17.0938 24.525 17.525 24.525 17.925C24.525 18.475 24.5063 18.9938 24.4688 19.4813C24.4312 19.9688 24.375 20.5875 24.3 21.3375ZM23.925 12.375H29.55C28.725 10.65 27.5938 9.2125 26.1562 8.0625C24.7188 6.9125 23.0625 6.1 21.1875 5.625C21.8125 6.55 22.3438 7.55 22.7812 8.625C23.2188 9.7 23.6 10.95 23.925 12.375ZM14.4 12.375H21.675C21.4 11.05 20.9375 9.76875 20.2875 8.53125C19.6375 7.29375 18.875 6.2 18 5.25C17.2 5.925 16.525 6.8125 15.975 7.9125C15.425 9.0125 14.9 10.5 14.4 12.375ZM6.45 12.375H12.1125C12.3875 11.025 12.7375 9.81875 13.1625 8.75625C13.5875 7.69375 14.125 6.6625 14.775 5.6625C12.9 6.1375 11.2625 6.9375 9.8625 8.0625C8.4625 9.1875 7.325 10.625 6.45 12.375Z" fill="#1C1B1F"/>
</g>
</svg>
