<svg width="48" height="48" viewBox="0 0 48 48" fill="none" xmlns="http://www.w3.org/2000/svg">
<path d="M38 6H10C7.8 6 6 7.8 6 10V38C6 40.2 7.8 42 10 42H38C40.2 42 42 40.2 42 38V10C42 7.8 40.2 6 38 6ZM18 34H13V20H18V34ZM15.4 17.4C13.8 17.4 12.8 16.4 12.8 15C12.8 13.6 13.8 12.6 15.6 12.6C17.2 12.6 18.2 13.6 18.2 15C18.2 16.4 17.2 17.4 15.4 17.4ZM36 34H31.2V26.4C31.2 24.2 29.8 23.8 29.4 23.8C29 23.8 27.2 24.2 27.2 26.4C27.2 26.8 27.2 34 27.2 34H22.2V20H27.2V22C27.8 20.8 29.2 20 31.6 20C34 20 36 22 36 26.4V34Z" fill="#F8FAFC"/>
</svg>
