<svg width="106" height="16" viewBox="0 0 106 16" fill="none" xmlns="http://www.w3.org/2000/svg">
<path d="M3 8C6.33333 1.33333 9.66667 1.33333 13 8C16.3333 14.6667 19.6667 14.6667 23 8C26.3333 1.33333 29.6667 1.33333 33 8C36.3333 14.6667 39.6667 14.6667 43 8C46.3333 1.33333 49.6667 1.33333 53 8C56.3333 14.6667 59.6667 14.6667 63 8C66.3333 1.33333 69.6667 1.33333 73 8C76.3333 14.6667 79.6667 14.6667 83 8C86.3333 1.33333 89.6667 1.33333 93 8C96.3333 14.6667 99.6667 14.6667 103 8" stroke="#FBBF24" stroke-width="6"/>
</svg>
