<svg width="48" height="48" viewBox="0 0 48 48" fill="none" xmlns="http://www.w3.org/2000/svg">
<path d="M5.83023 23.6162C18.3982 18.0872 34.6622 11.3462 36.9072 10.4132C42.7962 7.97117 44.6032 8.43917 43.7022 13.8472C43.0552 17.7342 41.1882 30.6032 39.7002 38.6132C38.8172 43.3632 36.8362 43.9262 33.7212 41.8712C32.2232 40.8822 24.6622 35.8822 23.0212 34.7082C21.5232 33.6382 19.4572 32.3512 22.0482 29.8162C22.9702 28.9132 29.0142 23.1422 33.7232 18.6502C34.3402 18.0602 33.5652 17.0912 32.8532 17.5642C26.5062 21.7732 17.7062 27.6152 16.5862 28.3762C14.8942 29.5252 13.2692 30.0522 10.3522 29.2142C8.14823 28.5812 5.99523 27.8262 5.15723 27.5382C1.93023 26.4302 2.69623 24.9952 5.83023 23.6162Z" fill="#F8FAFC"/>
</svg>
