<svg width="48" height="48" viewBox="0 0 48 48" fill="none" xmlns="http://www.w3.org/2000/svg">
<path d="M44 8C42.44 8.926 39.31 10.188 37.47 10.552C37.416 10.566 37.372 10.584 37.32 10.598C35.694 8.994 33.466 8 31 8C26.03 8 22 12.03 22 17C22 17.262 21.978 17.744 22 18C15.294 18 10.19 14.488 6.53 10C6.132 11 5.958 12.58 5.958 14.064C5.958 16.866 8.148 19.618 11.558 21.324C10.93 21.486 10.238 21.602 9.518 21.602C8.356 21.602 7.126 21.296 6 20.368C6 20.402 6 20.434 6 20.47C6 24.386 10.156 27.052 13.852 27.794C13.102 28.236 11.59 28.28 10.852 28.28C10.332 28.28 8.492 28.042 8 27.95C9.028 31.16 12.736 32.964 16.27 33.028C13.506 35.196 11.588 36 5.928 36H4C7.576 38.292 12.13 40.002 16.694 40.002C31.554 40.002 40 28.676 40 18C40 17.828 39.996 17.468 39.99 17.106C39.99 17.07 40 17.036 40 17C40 16.946 39.984 16.894 39.984 16.84C39.978 16.568 39.972 16.314 39.966 16.182C41.546 15.042 42.916 13.62 44 12C42.55 12.644 40.994 13.076 39.36 13.272C41.028 12.272 43.398 9.888 44 8Z" fill="#F8FAFC"/>
</svg>
