<svg width="428" height="27" viewBox="0 0 428 27" fill="none" xmlns="http://www.w3.org/2000/svg">
<path d="M0 24.3L14.2667 8.1L28.5333 5.4L42.8 24.3L57.0667 2.7L71.3333 24.3L85.6 21.6H99.8667L114.133 24.3L128.4 18.9L142.667 8.1L156.933 24.3L171.2 5.4H185.467L199.733 21.6L214 24.3L228.267 13.5L242.533 8.1L256.8 13.5L271.067 5.4L285.333 2.7L299.6 21.6L313.867 5.4H328.133L342.4 0L356.667 13.5H370.933L385.2 18.9L399.467 0L413.733 8.1L428 21.6V27H413.733H399.467H385.2H370.933H356.667H342.4H328.133H313.867H299.6H285.333H271.067H256.8H242.533H228.267H214H199.733H185.467H171.2H156.933H142.667H128.4H114.133H99.8667H85.6H71.3333H57.0667H42.8H28.5333H14.2667H0V24.3Z" fill="#F8FAFC"/>
</svg>
