<svg width="428" height="27" viewBox="0 0 428 27" fill="none" xmlns="http://www.w3.org/2000/svg">
<path d="M0 2.7L18.6061 18.9L37.2122 16.2L55.8183 5.4L74.4244 21.6L93.0306 27L111.666 8.1L130.272 10.8H148.879L167.485 0L186.091 10.8H204.697L223.303 8.1L241.909 21.6L260.515 2.7L279.121 5.4L297.728 13.5L316.334 8.1L334.969 18.9L353.576 27L372.182 0L390.788 2.7L409.394 13.5L428 5.4V27H409.394H390.788H372.182H353.576H334.969H316.334H297.728H279.121H260.515H241.909H223.303H204.697H186.091H167.485H148.879H130.272H111.666H93.0306H74.4244H55.8183H37.2122H18.6061H0V2.7Z" fill="#F43F5E"/>
</svg>
