<svg width="428" height="27" viewBox="0 0 428 27" fill="none" xmlns="http://www.w3.org/2000/svg">
<path d="M0 18.9L18.6061 8.1L37.2122 21.6L55.8183 10.8H74.4244H93.0306L111.666 13.5L130.272 21.6L148.879 24.3L167.485 5.4L186.091 10.8L204.697 24.3L223.303 13.5L241.909 2.7L260.515 8.1L279.121 16.2L297.728 10.8L316.334 5.4L334.969 0L353.576 8.1L372.182 27L390.788 0L409.394 5.4L428 24.3V27H409.394H390.788H372.182H353.576H334.969H316.334H297.728H279.121H260.515H241.909H223.303H204.697H186.091H167.485H148.879H130.272H111.666H93.0306H74.4244H55.8183H37.2122H18.6061H0V18.9Z" fill="#0F172A"/>
</svg>
