<svg width="428" height="27" viewBox="0 0 428 27" fill="none" xmlns="http://www.w3.org/2000/svg">
<path d="M0 16.2L18.6061 18.9L37.2122 21.6L55.8183 8.1L74.4244 2.7L93.0306 18.9L111.666 5.4L130.272 10.8L148.879 13.5L167.485 18.9L186.091 27L204.697 2.7L223.303 13.5L241.909 8.1L260.515 24.3L279.121 21.6L297.728 18.9L316.334 10.8L334.969 5.4L353.576 24.3L372.182 5.4L390.788 0L409.394 2.7L428 0V27H409.394H390.788H372.182H353.576H334.969H316.334H297.728H279.121H260.515H241.909H223.303H204.697H186.091H167.485H148.879H130.272H111.666H93.0306H74.4244H55.8183H37.2122H18.6061H0V16.2Z" fill="#14B8A6"/>
</svg>
