<svg width="428" height="28" viewBox="0 0 428 28" fill="none" xmlns="http://www.w3.org/2000/svg">
<path d="M0 2.8L20.3894 8.39999L40.7492 19.6L61.1386 22.4L81.5281 8.39999L101.918 8.39999L122.277 2.8L142.667 28L163.056 5.59999L183.416 16.8L203.805 16.8L224.195 28L244.584 0L264.944 25.2L285.333 22.4L305.723 2.8L326.082 14L346.472 5.59999L366.861 5.59999L387.251 14L407.611 0L428 8.39999V28L407.611 28L387.251 28H366.861L346.472 28L326.082 28H305.723L285.333 28L264.944 28L244.584 28H224.195L203.805 28L183.416 28H163.056L142.667 28L122.277 28H101.918L81.5281 28L61.1386 28L40.7492 28H20.3894L0 28L0 2.8Z" fill="#1E293B"/>
</svg>
