<svg width="428" height="27" viewBox="0 0 428 27" fill="none" xmlns="http://www.w3.org/2000/svg">
<path d="M0 24.3L18.6061 10.8L37.2122 18.9L55.8183 21.6L74.4244 5.4L93.0306 13.5L111.666 2.7L130.272 5.4L148.879 16.2L167.485 2.7L186.091 0L204.697 16.2L223.303 18.9H241.909L260.515 8.1L279.121 21.6L297.728 5.4L316.334 2.7L334.969 24.3L353.576 8.1H372.182L390.788 24.3H409.394L428 5.4V27H409.394H390.788H372.182H353.576H334.969H316.334H297.728H279.121H260.515H241.909H223.303H204.697H186.091H167.485H148.879H130.272H111.666H93.0306H74.4244H55.8183H37.2122H18.6061H0V24.3Z" fill="#F59E0B"/>
</svg>
